<svg width="198" height="39" viewBox="0 0 198 39" fill="none" xmlns="http://www.w3.org/2000/svg">
<g filter="url(#filter0_d_3_15)">
<path d="M17.3025 5.84V30H12.8225V5.84H4.0625V2.08H26.0625V5.84H17.3025ZM39.4869 30.48C37.9135 30.48 36.5002 30.2267 35.2469 29.72C33.9935 29.2133 32.9402 28.4933 32.0869 27.56C31.2335 26.6267 30.5802 25.5067 30.1269 24.2C29.6735 22.8667 29.4469 21.3733 29.4469 19.72C29.4469 18.0667 29.6735 16.5733 30.1269 15.24C30.6069 13.9067 31.2602 12.7733 32.0869 11.84C32.9402 10.88 33.9669 10.1467 35.1669 9.64C36.3669 9.13333 37.7002 8.88 39.1669 8.88C40.6069 8.88 41.9135 9.13333 43.0869 9.64C44.2602 10.12 45.2602 10.8133 46.0869 11.72C46.9135 12.6267 47.5402 13.7067 47.9669 14.96C48.4202 16.2133 48.6469 17.6 48.6469 19.12V20.76H33.8469V21.44C33.8469 23.0667 34.3535 24.4 35.3669 25.44C36.3802 26.4533 37.7802 26.96 39.5669 26.96C40.9002 26.96 42.0335 26.68 42.9669 26.12C43.9269 25.5333 44.7002 24.76 45.2869 23.8L48.0069 26.2C47.3135 27.4 46.2469 28.4133 44.8069 29.24C43.3935 30.0667 41.6202 30.48 39.4869 30.48ZM39.1669 12.2C38.3935 12.2 37.6735 12.3333 37.0069 12.6C36.3669 12.8667 35.8069 13.2533 35.3269 13.76C34.8735 14.24 34.5135 14.8133 34.2469 15.48C33.9802 16.1467 33.8469 16.88 33.8469 17.68V17.96H44.2069V17.56C44.2069 15.9333 43.7402 14.64 42.8069 13.68C41.9002 12.6933 40.6869 12.2 39.1669 12.2ZM63.7913 30.48C62.2446 30.48 60.8579 30.2267 59.6313 29.72C58.4313 29.2133 57.4046 28.4933 56.5513 27.56C55.7246 26.6267 55.0846 25.4933 54.6313 24.16C54.2046 22.8267 53.9913 21.3333 53.9913 19.68C53.9913 18.0267 54.2046 16.5333 54.6313 15.2C55.0846 13.8667 55.7246 12.7333 56.5513 11.8C57.4046 10.8667 58.4313 10.1467 59.6313 9.64C60.8579 9.13333 62.2313 8.88 63.7513 8.88C65.8846 8.88 67.5913 9.33333 68.8713 10.24C70.1779 11.1467 71.1513 12.32 71.7913 13.76L68.3913 15.6C68.0179 14.64 67.4446 13.88 66.6713 13.32C65.9246 12.76 64.9513 12.48 63.7513 12.48C62.0979 12.48 60.8179 12.9867 59.9113 14C59.0046 14.9867 58.5513 16.3067 58.5513 17.96V21.4C58.5513 23.0267 59.0046 24.3467 59.9113 25.36C60.8179 26.3733 62.1246 26.88 63.8313 26.88C65.1113 26.88 66.1513 26.5867 66.9513 26C67.7779 25.4133 68.4313 24.6133 68.9113 23.6L72.1113 25.56C71.4446 27 70.4313 28.1867 69.0713 29.12C67.7113 30.0267 65.9513 30.48 63.7913 30.48ZM78.3756 0.4H82.7356V12.88H82.9356C83.149 12.3467 83.4156 11.84 83.7356 11.36C84.0823 10.8533 84.4956 10.4267 84.9756 10.08C85.4556 9.70667 86.0156 9.41333 86.6556 9.2C87.2956 8.98667 88.0423 8.88 88.8956 8.88C90.9756 8.88 92.6556 9.56 93.9356 10.92C95.2156 12.28 95.8556 14.2133 95.8556 16.72V30H91.4956V17.36C91.4956 14.08 90.069 12.44 87.2156 12.44C86.6556 12.44 86.109 12.52 85.5756 12.68C85.0423 12.8133 84.5623 13.0267 84.1356 13.32C83.709 13.6133 83.3623 13.9867 83.0956 14.44C82.8556 14.8933 82.7356 15.4133 82.7356 16V30H78.3756V0.4ZM108.32 30L100.92 9.36H105.44L108.28 18.08L110.96 26.36H111.2L113.88 18.08L116.72 9.36H121.08L113.68 30H108.32ZM135.424 30.48C133.851 30.48 132.438 30.2267 131.184 29.72C129.931 29.2133 128.878 28.4933 128.024 27.56C127.171 26.6267 126.518 25.5067 126.064 24.2C125.611 22.8667 125.384 21.3733 125.384 19.72C125.384 18.0667 125.611 16.5733 126.064 15.24C126.544 13.9067 127.198 12.7733 128.024 11.84C128.878 10.88 129.904 10.1467 131.104 9.64C132.304 9.13333 133.638 8.88 135.104 8.88C136.544 8.88 137.851 9.13333 139.024 9.64C140.198 10.12 141.198 10.8133 142.024 11.72C142.851 12.6267 143.478 13.7067 143.904 14.96C144.358 16.2133 144.584 17.6 144.584 19.12V20.76H129.784V21.44C129.784 23.0667 130.291 24.4 131.304 25.44C132.318 26.4533 133.718 26.96 135.504 26.96C136.838 26.96 137.971 26.68 138.904 26.12C139.864 25.5333 140.638 24.76 141.224 23.8L143.944 26.2C143.251 27.4 142.184 28.4133 140.744 29.24C139.331 30.0667 137.558 30.48 135.424 30.48ZM135.104 12.2C134.331 12.2 133.611 12.3333 132.944 12.6C132.304 12.8667 131.744 13.2533 131.264 13.76C130.811 14.24 130.451 14.8133 130.184 15.48C129.918 16.1467 129.784 16.88 129.784 17.68V17.96H140.144V17.56C140.144 15.9333 139.678 14.64 138.744 13.68C137.838 12.6933 136.624 12.2 135.104 12.2ZM163.449 26.48H163.209C162.595 27.7333 161.782 28.72 160.769 29.44C159.755 30.1333 158.489 30.48 156.969 30.48C154.542 30.48 152.609 29.5733 151.169 27.76C149.729 25.9467 149.009 23.2533 149.009 19.68C149.009 16.1067 149.729 13.4133 151.169 11.6C152.609 9.78667 154.542 8.88 156.969 8.88C158.489 8.88 159.755 9.24 160.769 9.96C161.782 10.6533 162.595 11.6267 163.209 12.88H163.449V0.4H167.809V30H163.449V26.48ZM158.769 26.92C159.409 26.92 160.009 26.84 160.569 26.68C161.129 26.52 161.622 26.28 162.049 25.96C162.475 25.64 162.809 25.2533 163.049 24.8C163.315 24.32 163.449 23.76 163.449 23.12V16.24C163.449 15.6 163.315 15.0533 163.049 14.6C162.809 14.12 162.475 13.72 162.049 13.4C161.622 13.08 161.129 12.84 160.569 12.68C160.009 12.52 159.409 12.44 158.769 12.44C157.115 12.44 155.835 12.9467 154.929 13.96C154.049 14.9733 153.609 16.32 153.609 18V21.36C153.609 23.04 154.049 24.3867 154.929 25.4C155.835 26.4133 157.115 26.92 158.769 26.92ZM190.633 30C189.38 30 188.433 29.68 187.793 29.04C187.18 28.4 186.806 27.56 186.673 26.52H186.473C186.073 27.7733 185.34 28.7467 184.273 29.44C183.233 30.1333 181.9 30.48 180.273 30.48C178.166 30.48 176.486 29.9333 175.233 28.84C173.98 27.72 173.353 26.1867 173.353 24.24C173.353 22.24 174.086 20.72 175.553 19.68C177.046 18.6133 179.326 18.08 182.393 18.08H186.353V16.48C186.353 13.68 184.873 12.28 181.913 12.28C180.58 12.28 179.5 12.5467 178.673 13.08C177.846 13.5867 177.153 14.2667 176.593 15.12L173.993 13C174.58 11.88 175.566 10.92 176.953 10.12C178.34 9.29333 180.126 8.88 182.313 8.88C184.926 8.88 186.98 9.50667 188.473 10.76C189.966 12.0133 190.713 13.8267 190.713 16.2V26.56H193.313V30H190.633ZM181.513 27.28C182.926 27.28 184.086 26.96 184.993 26.32C185.9 25.68 186.353 24.8533 186.353 23.84V20.84H182.473C179.326 20.84 177.753 21.7867 177.753 23.68V24.48C177.753 25.4133 178.086 26.12 178.753 26.6C179.42 27.0533 180.34 27.28 181.513 27.28Z" fill="#867F7E"/>
</g>
<defs>
<filter id="filter0_d_3_15" x="0.0625" y="0.399994" width="197.251" height="38.08" filterUnits="userSpaceOnUse" color-interpolation-filters="sRGB">
<feFlood flood-opacity="0" result="BackgroundImageFix"/>
<feColorMatrix in="SourceAlpha" type="matrix" values="0 0 0 0 0 0 0 0 0 0 0 0 0 0 0 0 0 0 127 0" result="hardAlpha"/>
<feOffset dy="4"/>
<feGaussianBlur stdDeviation="2"/>
<feComposite in2="hardAlpha" operator="out"/>
<feColorMatrix type="matrix" values="0 0 0 0 0 0 0 0 0 0 0 0 0 0 0 0 0 0 0.25 0"/>
<feBlend mode="normal" in2="BackgroundImageFix" result="effect1_dropShadow_3_15"/>
<feBlend mode="normal" in="SourceGraphic" in2="effect1_dropShadow_3_15" result="shape"/>
</filter>
</defs>
</svg>
